<svg xmlns="http://www.w3.org/2000/svg" xmlns:xlink="http://www.w3.org/1999/xlink" width="2271" height="492" viewBox="0 0 2271 492"><defs><filter id="a" x="0" y="0" width="492" height="492" filterUnits="userSpaceOnUse"><feOffset dy="3" input="SourceAlpha"/><feGaussianBlur stdDeviation="25" result="b"/><feFlood flood-color="#0b90c2"/><feComposite operator="in" in2="b"/><feComposite in="SourceGraphic"/></filter></defs><g transform="translate(125 72)"><g transform="translate(332.83 113.614)"><text transform="translate(15.17 180.386)" fill="#0b90c2" font-size="217" font-family="CambriaMath, Cambria Math"><tspan x="0" y="0">MOD</tspan><tspan y="0" fill="#000">ERN</tspan><tspan y="0" fill="#fff"> </tspan><tspan y="0">TECH</tspan><tspan y="0" fill="#fff"> </tspan><tspan y="0" fill="#000">Ltd</tspan></text></g><g transform="translate(-50)"><g transform="matrix(1, 0, 0, 1, -75, -72)" filter="url(#a)"><circle cx="171" cy="171" r="171" transform="translate(75 72)" fill="#fff"/></g><g transform="translate(64.61 64.61)" fill="#fff"><path d="M 106.1453857421875 203.290771484375 C 52.57924270629883 203.290771484375 8.999993324279785 159.7115325927734 8.999993324279785 106.1453857421875 C 8.999993324279785 52.57924270629883 52.57924270629883 8.999993324279785 106.1453857421875 8.999993324279785 C 159.7115325927734 8.999993324279785 203.290771484375 52.57924270629883 203.290771484375 106.1453857421875 C 203.290771484375 159.7115325927734 159.7115325927734 203.290771484375 106.1453857421875 203.290771484375 Z" stroke="none"/><path d="M 106.1453857421875 17.99996948242188 C 57.54183959960938 17.99996948242188 17.99996948242188 57.54183959960938 17.99996948242188 106.1453857421875 C 17.99996948242188 154.7488861083984 57.54183959960938 194.2907409667969 106.1453857421875 194.2907409667969 C 154.7488861083984 194.2907409667969 194.2907409667969 154.7488861083984 194.2907409667969 106.1453857421875 C 194.2907409667969 57.54183959960938 154.7488861083984 17.99996948242188 106.1453857421875 17.99996948242188 M 106.1453857421875 -3.0517578125e-05 C 164.7678833007813 -3.0517578125e-05 212.2907562255859 47.52293395996094 212.2907562255859 106.1453857421875 C 212.2907562255859 164.7678833007813 164.7678833007813 212.2907562255859 106.1453857421875 212.2907562255859 C 47.52293395996094 212.2907562255859 -3.0517578125e-05 164.7678833007813 -3.0517578125e-05 106.1453857421875 C -3.0517578125e-05 47.52293395996094 47.52293395996094 -3.0517578125e-05 106.1453857421875 -3.0517578125e-05 Z" stroke="none" fill="#555"/></g><rect width="78.08" height="118.206" transform="translate(241.353 46.449) rotate(45)" fill="#fff"/><rect width="15.46" height="102.195" rx="7.73" transform="translate(258.103 74.104) rotate(45)" fill="#0d6484"/></g><text transform="translate(348 90)" font-size="130" font-family="AdobeHebrew-Bold, Adobe Hebrew" font-weight="700" letter-spacing="0.85em"><tspan x="0" y="0">ECKSTEIN</tspan></text></g></svg>